<?xml version="1.0" encoding="UTF-8" ?>
<!DOCTYPE svg PUBLIC "-//W3C//DTD SVG 1.1//EN" "http://www.w3.org/Graphics/SVG/1.1/DTD/svg11.dtd">
<svg width="652pt" height="652pt" viewBox="0 0 652 652" version="1.1" xmlns="http://www.w3.org/2000/svg">
<path fill="#2c69b1" d=" M 214.48 2.32 C 221.52 16.21 228.07 30.41 236.47 43.57 C 242.67 53.49 249.46 63.06 257.06 71.96 C 265.95 82.05 275.84 91.20 286.09 99.89 C 300.50 111.95 315.91 123.06 333.04 130.95 C 345.35 136.53 358.33 140.47 371.29 144.22 C 368.02 138.80 363.62 134.20 359.93 129.09 C 339.04 101.33 321.21 70.41 313.35 36.28 C 311.74 29.08 310.27 21.81 310.06 14.42 C 317.39 14.34 324.64 15.73 331.98 15.64 C 340.63 16.55 349.33 16.31 358.01 16.84 C 364.86 17.68 371.83 17.06 378.64 18.36 C 386.23 46.60 395.03 74.86 409.57 100.39 C 417.23 114.24 426.48 127.19 436.90 139.10 C 438.70 141.14 440.63 143.09 442.68 144.90 C 451.09 131.59 460.65 118.96 471.87 107.88 C 485.65 93.94 501.07 81.30 518.61 72.40 C 534.85 95.38 551.72 117.94 569.82 139.50 C 551.48 144.48 534.01 152.56 518.44 163.47 C 483.19 188.11 457.27 223.83 437.73 261.69 C 434.15 268.38 431.47 275.50 427.82 282.16 C 425.03 277.19 423.13 271.77 420.07 266.95 C 407.68 245.86 388.18 230.12 367.69 217.34 C 345.81 203.58 322.34 192.67 299.69 180.30 C 272.52 164.90 247.57 145.59 225.66 123.35 C 208.24 105.22 192.64 85.05 181.60 62.37 C 178.77 56.47 175.70 50.61 174.01 44.26 C 189.09 31.96 203.41 18.43 214.48 2.32 Z" />
<path fill="#4282be" d=" M 133.43 87.41 C 135.20 85.88 137.02 84.41 138.93 83.05 C 144.74 104.03 154.56 123.85 167.88 141.08 C 192.36 173.17 226.08 196.97 261.70 215.29 C 268.18 218.82 275.18 221.29 281.55 225.02 C 277.10 227.51 272.27 229.23 267.90 231.85 C 253.37 240.07 241.10 251.78 230.88 264.89 C 212.37 288.60 199.48 315.94 185.43 342.37 C 176.76 359.70 166.11 375.99 154.38 391.40 C 135.83 415.59 114.16 437.59 89.10 455.06 C 75.07 464.70 60.06 473.20 43.94 478.80 C 37.30 471.21 30.96 463.33 23.60 456.40 C 17.03 449.58 9.40 443.96 1.98 438.14 C 8.33 434.66 15.08 432.00 21.41 428.50 C 46.94 415.39 71.28 398.98 90.13 377.11 C 109.74 355.71 127.61 331.73 136.73 303.85 C 139.01 296.42 141.99 289.18 143.58 281.56 C 138.10 284.95 133.39 289.41 128.15 293.14 C 100.13 314.22 68.79 332.05 34.29 339.70 C 27.45 341.03 20.60 342.79 13.58 342.60 C 16.12 319.85 15.60 296.92 17.82 274.16 C 48.50 265.94 79.18 256.10 106.43 239.42 C 120.03 231.19 132.80 221.55 144.36 210.63 C 143.31 209.68 142.32 208.63 141.13 207.84 C 121.44 195.51 104.15 179.48 89.66 161.35 C 83.05 152.83 76.63 144.01 72.04 134.21 C 92.82 119.04 113.81 104.09 133.43 87.41 Z" />
<path fill="#729ac9" d=" M 558.51 201.55 C 573.74 190.44 590.33 180.99 608.06 174.54 C 612.27 178.50 615.55 183.30 619.52 187.49 C 625.98 194.36 632.59 201.13 639.94 207.07 C 643.29 209.78 646.85 212.23 650.10 215.08 C 645.83 217.69 641.11 219.39 636.69 221.70 C 619.57 230.26 602.91 239.95 587.84 251.81 C 574.72 261.93 563.44 274.17 552.73 286.74 C 536.99 305.42 523.02 326.15 515.50 349.58 C 513.26 356.87 510.31 363.97 508.75 371.45 C 513.80 368.81 517.86 364.75 522.43 361.42 C 549.71 340.63 580.11 323.01 613.59 314.57 C 621.79 312.69 630.06 310.77 638.50 310.48 C 638.12 316.33 637.53 322.16 637.22 328.01 C 636.17 336.64 636.85 345.36 635.97 354.00 C 635.39 362.27 635.83 370.61 634.53 378.84 C 628.30 381.19 621.74 382.43 615.42 384.44 C 583.40 393.75 552.14 407.13 525.57 427.57 C 519.45 432.44 513.13 437.17 507.93 443.05 C 512.11 446.28 516.79 448.80 520.99 452.00 C 543.93 468.89 563.88 490.13 578.18 514.82 C 579.05 516.46 580.78 519.14 578.45 520.42 C 560.47 533.33 542.53 546.35 525.36 560.34 C 521.34 563.54 517.67 567.17 513.35 569.98 C 509.48 557.45 505.13 544.96 498.46 533.61 C 481.90 503.72 456.58 479.59 428.58 460.44 C 415.75 451.57 402.14 443.89 388.30 436.73 C 382.55 433.74 376.32 431.69 370.85 428.16 C 380.83 423.45 390.78 418.43 399.25 411.25 C 415.85 397.57 428.64 379.97 439.52 361.57 C 456.15 334.10 468.20 304.02 486.55 277.57 C 506.34 248.69 530.31 222.41 558.51 201.55 Z" />
<path fill="#205c90" d=" M 218.78 382.74 C 220.68 378.79 222.44 374.76 224.63 370.95 C 227.94 378.23 231.29 385.55 235.88 392.14 C 249.24 411.73 268.57 426.23 288.61 438.42 C 317.98 456.53 350.46 469.24 378.60 489.39 C 409.96 511.47 438.41 538.39 459.28 570.76 C 466.96 582.73 473.58 595.42 478.46 608.80 C 465.82 619.31 453.36 630.26 443.37 643.41 C 441.44 645.92 439.57 648.49 437.48 650.88 C 423.48 620.11 406.21 589.99 381.15 566.84 C 360.30 547.26 337.33 528.96 310.38 518.60 C 300.63 515.05 290.77 511.74 280.77 508.96 C 287.38 518.36 294.95 527.06 301.33 536.64 C 322.39 567.01 339.00 601.68 342.47 638.87 C 337.46 638.72 332.45 638.50 327.48 637.90 C 309.71 636.83 291.90 636.53 274.15 635.20 C 272.97 633.89 272.85 632.02 272.32 630.43 C 263.10 594.65 249.78 559.29 227.63 529.39 C 222.11 522.00 216.34 514.77 209.78 508.27 C 205.74 513.77 202.33 519.73 198.07 525.09 C 180.67 547.64 159.13 567.43 133.86 580.80 C 120.85 563.27 108.27 545.42 94.50 528.47 C 90.77 523.41 86.00 519.12 82.87 513.64 C 99.63 508.98 115.73 501.89 130.21 492.21 C 151.44 478.29 169.48 459.94 184.67 439.69 C 198.00 421.96 209.28 402.77 218.78 382.74 Z" />
</svg>
